<svg xmlns="http://www.w3.org/2000/svg" xmlns:xlink="http://www.w3.org/1999/xlink" viewBox="0,0,256,256" width="48px" height="48px" fill-rule="nonzero"><g fill="none" fill-rule="nonzero" stroke="none" stroke-width="1" stroke-linecap="butt" stroke-linejoin="miter" stroke-miterlimit="10" stroke-dasharray="" stroke-dashoffset="0" font-family="none" font-weight="none" font-size="none" text-anchor="none" style="mix-blend-mode: normal"><g transform="scale(5.33333,5.33333)"><path d="M44,24c0,11.045 -8.955,20 -20,20c-11.045,0 -20,-8.955 -20,-20c0,-11.045 8.955,-20 20,-20c11.045,0 20,8.955 20,20z" fill="#ffffff"></path><path d="M24.848,12.125c-0.765,-0.327 -1.651,0.022 -1.976,0.784l-8.841,20.591c-0.102,0.236 0.072,0.5 0.329,0.5h2.226c0.3,0 0.571,-0.179 0.689,-0.454l3.69,-8.595l10.581,8.707c0.277,0.228 0.615,0.342 0.954,0.342c0.317,0 0.635,-0.101 0.903,-0.302c0.553,-0.418 0.749,-1.16 0.473,-1.796l-8.25,-19c-0.157,-0.363 -0.441,-0.631 -0.778,-0.777zM22.198,22.08l2.059,-4.796l4.385,10.1z" fill="#424242"></path></g></g></svg>