<svg xmlns="http://www.w3.org/2000/svg" xmlns:xlink="http://www.w3.org/1999/xlink" viewBox="0,0,256,256" width="48px" height="48px" fill-rule="nonzero"><g fill="currentColor" fill-rule="nonzero" stroke="none" stroke-width="1" stroke-linecap="butt" stroke-linejoin="miter" stroke-miterlimit="10" stroke-dasharray="" stroke-dashoffset="0" font-family="none" font-weight="none" font-size="none" text-anchor="none" style="mix-blend-mode: normal"><g transform="scale(5.33333,5.33333)"><path d="M47.527,19.847c-0.13,-0.102 -1.345,-1.007 -3.908,-1.007c-0.677,0.003 -1.352,0.06 -2.019,0.171c-0.496,-3.354 -3.219,-4.93 -3.345,-5.003l-0.688,-0.392l-0.453,0.644c-0.567,0.866 -1.068,1.76 -1.311,2.763c-0.459,1.915 -0.18,3.713 0.806,5.25c-1.192,0.655 -3.223,0.713 -3.609,0.727h-31.418c-0.826,0.001 -1.496,0.66 -1.501,1.474c-0.037,2.733 0.353,5.553 1.306,8.119c1.089,2.818 2.71,4.894 4.818,6.164c2.362,1.427 6.2,2.243 10.551,2.243c1.965,0.006 3.927,-0.169 5.859,-0.524c2.686,-0.487 5.271,-1.413 7.647,-2.74c1.958,-1.119 3.72,-2.542 5.219,-4.215c2.505,-2.798 3.997,-5.913 5.107,-8.682c0.149,0 0.298,0 0.442,0c2.743,0 4.429,-1.083 5.359,-1.99c0.618,-0.579 1.101,-1.284 1.414,-2.065l0.197,-0.568z"></path><path d="M8,22h-3c-0.552,0 -1,-0.448 -1,-1v-3c0,-0.552 0.448,-1 1,-1h3c0.552,0 1,0.448 1,1v3c0,0.552 -0.448,1 -1,1z"></path><path d="M14,22h-3c-0.552,0 -1,-0.448 -1,-1v-3c0,-0.552 0.448,-1 1,-1h3c0.552,0 1,0.448 1,1v3c0,0.552 -0.448,1 -1,1z"></path><path d="M20,22h-3c-0.552,0 -1,-0.448 -1,-1v-3c0,-0.552 0.448,-1 1,-1h3c0.552,0 1,0.448 1,1v3c0,0.552 -0.448,1 -1,1z"></path><path d="M26,22h-3c-0.552,0 -1,-0.448 -1,-1v-3c0,-0.552 0.448,-1 1,-1h3c0.552,0 1,0.448 1,1v3c0,0.552 -0.448,1 -1,1z"></path><path d="M14,16h-3c-0.552,0 -1,-0.448 -1,-1v-3c0,-0.552 0.448,-1 1,-1h3c0.552,0 1,0.448 1,1v3c0,0.552 -0.448,1 -1,1z"></path><path d="M20,16h-3c-0.552,0 -1,-0.448 -1,-1v-3c0,-0.552 0.448,-1 1,-1h3c0.552,0 1,0.448 1,1v3c0,0.552 -0.448,1 -1,1z"></path><path d="M26,16h-3c-0.552,0 -1,-0.448 -1,-1v-3c0,-0.552 0.448,-1 1,-1h3c0.552,0 1,0.448 1,1v3c0,0.552 -0.448,1 -1,1z"></path><path d="M26,10h-3c-0.552,0 -1,-0.448 -1,-1v-3c0,-0.552 0.448,-1 1,-1h3c0.552,0 1,0.448 1,1v3c0,0.552 -0.448,1 -1,1z"></path><path d="M32,22h-3c-0.552,0 -1,-0.448 -1,-1v-3c0,-0.552 0.448,-1 1,-1h3c0.552,0 1,0.448 1,1v3c0,0.552 -0.448,1 -1,1z"></path></g></g></svg>
