<svg id="visual" viewBox="0 0 960 540" width="960" height="540" xmlns="http://www.w3.org/2000/svg" xmlns:xlink="http://www.w3.org/1999/xlink" version="1.1"><path d="M0 77L20 72.5C40 68 80 59 120 57.2C160 55.3 200 60.7 240 76.8C280 93 320 120 360 126.3C400 132.7 440 118.3 480 121.8C520 125.3 560 146.7 600 148.3C640 150 680 132 720 115.8C760 99.7 800 85.3 840 84.5C880 83.7 920 96.3 940 102.7L960 109L960 0L940 0C920 0 880 0 840 0C800 0 760 0 720 0C680 0 640 0 600 0C560 0 520 0 480 0C440 0 400 0 360 0C320 0 280 0 240 0C200 0 160 0 120 0C80 0 40 0 20 0L0 0Z" fill="#211c50"></path><path d="M0 158L20 146.2C40 134.3 80 110.7 120 100.7C160 90.7 200 94.3 240 107C280 119.7 320 141.3 360 153C400 164.7 440 166.3 480 175.3C520 184.3 560 200.7 600 199C640 197.3 680 177.7 720 157.8C760 138 800 118 840 123.3C880 128.7 920 159.3 940 174.7L960 190L960 107L940 100.7C920 94.3 880 81.7 840 82.5C800 83.3 760 97.7 720 113.8C680 130 640 148 600 146.3C560 144.7 520 123.3 480 119.8C440 116.3 400 130.7 360 124.3C320 118 280 91 240 74.8C200 58.7 160 53.3 120 55.2C80 57 40 66 20 70.5L0 75Z" fill="#1d1945"></path><path d="M0 195L20 187C40 179 80 163 120 150.5C160 138 200 129 240 135.3C280 141.7 320 163.3 360 179.5C400 195.7 440 206.3 480 219.8C520 233.3 560 249.7 600 243.3C640 237 680 208 720 190C760 172 800 165 840 174C880 183 920 208 940 220.5L960 233L960 188L940 172.7C920 157.3 880 126.7 840 121.3C800 116 760 136 720 155.8C680 175.7 640 195.3 600 197C560 198.7 520 182.3 480 173.3C440 164.3 400 162.7 360 151C320 139.3 280 117.7 240 105C200 92.3 160 88.7 120 98.7C80 108.7 40 132.3 20 144.2L0 156Z" fill="#19163b"></path><path d="M0 222L20 213C40 204 80 186 120 172.5C160 159 200 150 240 156.3C280 162.7 320 184.3 360 200.7C400 217 440 228 480 242.5C520 257 560 275 600 268.7C640 262.3 680 231.7 720 210.8C760 190 800 179 840 187C880 195 920 222 940 235.5L960 249L960 231L940 218.5C920 206 880 181 840 172C800 163 760 170 720 188C680 206 640 235 600 241.3C560 247.7 520 231.3 480 217.8C440 204.3 400 193.7 360 177.5C320 161.3 280 139.7 240 133.3C200 127 160 136 120 148.5C80 161 40 177 20 185L0 193Z" fill="#161330"></path><path d="M0 249L20 249C40 249 80 249 120 245.5C160 242 200 235 240 250.3C280 265.7 320 303.3 360 319.5C400 335.7 440 330.3 480 325C520 319.7 560 314.3 600 307.2C640 300 680 291 720 270.3C760 249.7 800 217.3 840 220.8C880 224.3 920 263.7 940 283.3L960 303L960 247L940 233.5C920 220 880 193 840 185C800 177 760 188 720 208.8C680 229.7 640 260.3 600 266.7C560 273 520 255 480 240.5C440 226 400 215 360 198.7C320 182.3 280 160.7 240 154.3C200 148 160 157 120 170.5C80 184 40 202 20 211L0 220Z" fill="#130f26"></path><path d="M0 271L20 270.2C40 269.3 80 267.7 120 262.3C160 257 200 248 240 263.2C280 278.3 320 317.7 360 338.3C400 359 440 361 480 359.3C520 357.7 560 352.3 600 344.2C640 336 680 325 720 300.7C760 276.3 800 238.7 840 243.2C880 247.7 920 294.3 940 317.7L960 341L960 301L940 281.3C920 261.7 880 222.3 840 218.8C800 215.3 760 247.7 720 268.3C680 289 640 298 600 305.2C560 312.3 520 317.7 480 323C440 328.3 400 333.7 360 317.5C320 301.3 280 263.7 240 248.3C200 233 160 240 120 243.5C80 247 40 247 20 247L0 247Z" fill="#0f091d"></path><path d="M0 298L20 298.8C40 299.7 80 301.3 120 297.7C160 294 200 285 240 298.5C280 312 320 348 360 373.3C400 398.7 440 413.3 480 413.3C520 413.3 560 398.7 600 387.8C640 377 680 370 720 350.3C760 330.7 800 298.3 840 301C880 303.7 920 341.3 940 360.2L960 379L960 339L940 315.7C920 292.3 880 245.7 840 241.2C800 236.7 760 274.3 720 298.7C680 323 640 334 600 342.2C560 350.3 520 355.7 480 357.3C440 359 400 357 360 336.3C320 315.7 280 276.3 240 261.2C200 246 160 255 120 260.3C80 265.7 40 267.3 20 268.2L0 269Z" fill="#0b0618"></path><path d="M0 309L20 309C40 309 80 309 120 308C160 307 200 305 240 320.3C280 335.7 320 368.3 360 390C400 411.7 440 422.3 480 425.8C520 429.3 560 425.7 600 418.5C640 411.3 680 400.7 720 376.3C760 352 800 314 840 313C880 312 920 348 940 366L960 384L960 377L940 358.2C920 339.3 880 301.7 840 299C800 296.3 760 328.7 720 348.3C680 368 640 375 600 385.8C560 396.7 520 411.3 480 411.3C440 411.3 400 396.7 360 371.3C320 346 280 310 240 296.5C200 283 160 292 120 295.7C80 299.3 40 297.7 20 296.8L0 296Z" fill="#0a0617"></path><path d="M0 336L20 334.2C40 332.3 80 328.7 120 328.7C160 328.7 200 332.3 240 351.2C280 370 320 404 360 423.8C400 443.7 440 449.3 480 451.2C520 453 560 451 600 443.7C640 436.3 680 423.7 720 397.7C760 371.7 800 332.3 840 328.8C880 325.3 920 357.7 940 373.8L960 390L960 382L940 364C920 346 880 310 840 311C800 312 760 350 720 374.3C680 398.7 640 409.3 600 416.5C560 423.7 520 427.3 480 423.8C440 420.3 400 409.7 360 388C320 366.3 280 333.7 240 318.3C200 303 160 305 120 306C80 307 40 307 20 307L0 307Z" fill="#0a0616"></path><path d="M0 509L20 501.7C40 494.3 80 479.7 120 474.2C160 468.7 200 472.3 240 477.8C280 483.3 320 490.7 360 497C400 503.3 440 508.7 480 506C520 503.3 560 492.7 600 489C640 485.3 680 488.7 720 484.2C760 479.7 800 467.3 840 461.2C880 455 920 455 940 455L960 455L960 388L940 371.8C920 355.7 880 323.3 840 326.8C800 330.3 760 369.7 720 395.7C680 421.7 640 434.3 600 441.7C560 449 520 451 480 449.2C440 447.3 400 441.7 360 421.8C320 402 280 368 240 349.2C200 330.3 160 326.7 120 326.7C80 326.7 40 330.3 20 332.2L0 334Z" fill="#090515"></path><path d="M0 536L20 527C40 518 80 500 120 498.2C160 496.3 200 510.7 240 517.8C280 525 320 525 360 525C400 525 440 525 480 521.3C520 517.7 560 510.3 600 509.3C640 508.3 680 513.7 720 513.7C760 513.7 800 508.3 840 505.7C880 503 920 503 940 503L960 503L960 453L940 453C920 453 880 453 840 459.2C800 465.3 760 477.7 720 482.2C680 486.7 640 483.3 600 487C560 490.7 520 501.3 480 504C440 506.7 400 501.3 360 495C320 488.7 280 481.3 240 475.8C200 470.3 160 466.7 120 472.2C80 477.7 40 492.3 20 499.7L0 507Z" fill="#090514"></path><path d="M0 541L20 541C40 541 80 541 120 541C160 541 200 541 240 541C280 541 320 541 360 541C400 541 440 541 480 541C520 541 560 541 600 541C640 541 680 541 720 541C760 541 800 541 840 541C880 541 920 541 940 541L960 541L960 501L940 501C920 501 880 501 840 503.7C800 506.3 760 511.7 720 511.7C680 511.7 640 506.3 600 507.3C560 508.3 520 515.7 480 519.3C440 523 400 523 360 523C320 523 280 523 240 515.8C200 508.7 160 494.3 120 496.2C80 498 40 516 20 525L0 534Z" fill="#080513"></path></svg>