<svg id="visual" viewBox="0 0 450 900" width="450" height="900" xmlns="http://www.w3.org/2000/svg" xmlns:xlink="http://www.w3.org/1999/xlink" version="1.1"><path d="M0 46L15 44.5C30 43 60 40 90 43C120 46 150 55 180 52C210 49 240 34 270 37C300 40 330 61 360 59.5C390 58 420 34 435 22L450 10L450 0L435 0C420 0 390 0 360 0C330 0 300 0 270 0C240 0 210 0 180 0C150 0 120 0 90 0C60 0 30 0 15 0L0 0Z" fill="#211c50"></path><path d="M0 64L15 64C30 64 60 64 90 73C120 82 150 100 180 95.5C210 91 240 64 270 61C300 58 330 79 360 82C390 85 420 70 435 62.5L450 55L450 8L435 20C420 32 390 56 360 57.5C330 59 300 38 270 35C240 32 210 47 180 50C150 53 120 44 90 41C60 38 30 41 15 42.5L0 44Z" fill="#1d1945"></path><path d="M0 109L15 110.5C30 112 60 115 90 122.5C120 130 150 142 180 133C210 124 240 94 270 89.5C300 85 330 106 360 112C390 118 420 109 435 104.5L450 100L450 53L435 60.5C420 68 390 83 360 80C330 77 300 56 270 59C240 62 210 89 180 93.5C150 98 120 80 90 71C60 62 30 62 15 62L0 62Z" fill="#19163b"></path><path d="M0 145L15 146.5C30 148 60 151 90 164.5C120 178 150 202 180 199C210 196 240 166 270 158.5C300 151 330 166 360 163C390 160 420 139 435 128.5L450 118L450 98L435 102.5C420 107 390 116 360 110C330 104 300 83 270 87.5C240 92 210 122 180 131C150 140 120 128 90 120.5C60 113 30 110 15 108.5L0 107Z" fill="#161330"></path><path d="M0 208L15 200.5C30 193 60 178 90 194.5C120 211 150 259 180 262C210 265 240 223 270 212.5C300 202 330 223 360 217C390 211 420 178 435 161.5L450 145L450 116L435 126.5C420 137 390 158 360 161C330 164 300 149 270 156.5C240 164 210 194 180 197C150 200 120 176 90 162.5C60 149 30 146 15 144.5L0 143Z" fill="#130f26"></path><path d="M0 361L15 343C30 325 60 289 90 295C120 301 150 349 180 365.5C210 382 240 367 270 347.5C300 328 330 304 360 295C390 286 420 292 435 295L450 298L450 143L435 159.5C420 176 390 209 360 215C330 221 300 200 270 210.5C240 221 210 263 180 260C150 257 120 209 90 192.5C60 176 30 191 15 198.5L0 206Z" fill="#0f091d"></path><path d="M0 379L15 367C30 355 60 331 90 335.5C120 340 150 373 180 383.5C210 394 240 382 270 373C300 364 330 358 360 355C390 352 420 352 435 352L450 352L450 296L435 293C420 290 390 284 360 293C330 302 300 326 270 345.5C240 365 210 380 180 363.5C150 347 120 299 90 293C60 287 30 323 15 341L0 359Z" fill="#0b0618"></path><path d="M0 532L15 529C30 526 60 520 90 527.5C120 535 150 556 180 571C210 586 240 595 270 601C300 607 330 610 360 616C390 622 420 631 435 635.5L450 640L450 350L435 350C420 350 390 350 360 353C330 356 300 362 270 371C240 380 210 392 180 381.5C150 371 120 338 90 333.5C60 329 30 353 15 365L0 377Z" fill="#0a0617"></path><path d="M0 550L15 553C30 556 60 562 90 572.5C120 583 150 598 180 608.5C210 619 240 625 270 632.5C300 640 330 649 360 655C390 661 420 664 435 665.5L450 667L450 638L435 633.5C420 629 390 620 360 614C330 608 300 605 270 599C240 593 210 584 180 569C150 554 120 533 90 525.5C60 518 30 524 15 527L0 530Z" fill="#0a0616"></path><path d="M0 667L15 685C30 703 60 739 90 764.5C120 790 150 805 180 788.5C210 772 240 724 270 719.5C300 715 330 754 360 773.5C390 793 420 793 435 793L450 793L450 665L435 663.5C420 662 390 659 360 653C330 647 300 638 270 630.5C240 623 210 617 180 606.5C150 596 120 581 90 570.5C60 560 30 554 15 551L0 548Z" fill="#090515"></path><path d="M0 739L15 748C30 757 60 775 90 799C120 823 150 853 180 850C210 847 240 811 270 800.5C300 790 330 805 360 817C390 829 420 838 435 842.5L450 847L450 791L435 791C420 791 390 791 360 771.5C330 752 300 713 270 717.5C240 722 210 770 180 786.5C150 803 120 788 90 762.5C60 737 30 701 15 683L0 665Z" fill="#090514"></path><path d="M0 901L15 901C30 901 60 901 90 901C120 901 150 901 180 901C210 901 240 901 270 901C300 901 330 901 360 901C390 901 420 901 435 901L450 901L450 845L435 840.5C420 836 390 827 360 815C330 803 300 788 270 798.5C240 809 210 845 180 848C150 851 120 821 90 797C60 773 30 755 15 746L0 737Z" fill="#080513"></path></svg>